HIERARCHY
ROOT Hip
{
	OFFSET	0.00  0.00  0.00 
	CHANNELS 6 Xposition Yposition Zposition Xrotation Zrotation Yrotation
	JOINT Abdomen
	{
		OFFSET	0.000000 0.000000 0.000000
		CHANNELS 3 Xrotation Zrotation Yrotation
		JOINT Chest
		{
			OFFSET	0.000000 5.018152 -1.882229
			CHANNELS 3 Xrotation Zrotation Yrotation
			JOINT neckDummy
			{
				OFFSET	0.000000 8.316447 0.784897
				CHANNELS 3 Xrotation Yrotation Zrotation
				JOINT Neck
				{
					OFFSET	0.000000 2.280413 -0.392801
					CHANNELS 3 Xrotation Zrotation Yrotation
					JOINT Head
					{
						OFFSET	0.000000 3.496879 0.529469
						CHANNELS 3 Xrotation Zrotation Yrotation
						End Site
						{
							OFFSET 0.000000 10.353750 0.000000
						}
					}
				}
			}
			JOINT Left Collar
			{
				OFFSET	0.599237 8.316447 0.784897
				CHANNELS 3 Yrotation Zrotation Xrotation
				JOINT Left Shoulder
				{
					OFFSET	6.421198 0.010146 -0.332128
					CHANNELS 3 Zrotation Yrotation Xrotation
					JOINT Left Forearm
					{
						OFFSET	10.552783 0.025574 0.125508
						CHANNELS 3 Yrotation Zrotation Xrotation
						JOINT Left Hand
						{
							OFFSET	11.035963 0.319619 0.041520
							CHANNELS 3 Zrotation Yrotation Xrotation
							End Site
							{
								OFFSET 10.353753 0.000000 0.000000
							}
						}
					}
				}
			}
			JOINT Right Collar
			{
				OFFSET	-0.599237 8.316447 0.784897
				CHANNELS 3 Yrotation Zrotation Xrotation
				JOINT Right Shoulder
				{
					OFFSET	-6.421198 0.010146 -0.332128
					CHANNELS 3 Zrotation Yrotation Xrotation
					JOINT Right Forearm
					{
						OFFSET	-10.552783 0.025574 0.125508
						CHANNELS 3 Yrotation Zrotation Xrotation
						JOINT Right Hand
						{
							OFFSET	-11.035963 0.319619 0.041520
							CHANNELS 3 Zrotation Yrotation Xrotation
							End Site
							{
								OFFSET -10.353753 0.000000 0.000000
							}
						}
					}
				}
			}
		}
	}
	JOINT Left Thigh
	{
		OFFSET	4.500466 -6.400484 -1.832696
		CHANNELS 3 Xrotation Zrotation Yrotation
		JOINT Left Shin
		{
			OFFSET	-1.359117 -18.918689 1.179887
			CHANNELS 3 Xrotation Zrotation Yrotation
			JOINT Left Foot
			{
				OFFSET	-0.652380 -17.215187 -0.312137
				CHANNELS 3 Xrotation Yrotation Zrotation
				End Site
				{
					OFFSET 0.000000 0.000000 10.353752
				}
			}
		}
	}
	JOINT Right Thigh
	{
		OFFSET	-4.500466 -6.400484 -1.832696
		CHANNELS 3 Xrotation Zrotation Yrotation
		JOINT Right Shin
		{
			OFFSET	1.359117 -18.918689 1.179887
			CHANNELS 3 Xrotation Zrotation Yrotation
			JOINT Right Foot
			{
				OFFSET	0.652380 -17.215187 -0.312137
				CHANNELS 3 Xrotation Yrotation Zrotation
				End Site
				{
					OFFSET 0.000000 0.000000 10.353752
				}
			}
		}
	}
}
MOTION
Frames:     19
Frame Time: 0.041667
0.000000 31.366284 -1.621306 10.848100 1.053900 4.670930 14.800600 -2.768740 1.285670 9.889380 -1.461390 1.759090 0.000000 0.000000 0.000000 5.917960 -0.444762 3.218710 -17.102200 2.101010 -4.179620 0.000000 0.000000 0.000000 -80.193550 -40.334087 -1.188612 -125.828011 -8.457438 -40.056396 -27.005329 3.759701 -4.409734 0.000000 0.000000 0.000000 47.576057 52.416222 -55.202576 105.856598 42.148743 -41.814880 0.146239 -0.097536 -0.000125 -45.449528 25.269497 1.378618 80.100739 -6.472593 -6.916770 -39.160530 11.001390 -15.776448 -81.077232 -30.884340 0.933249 69.644310 4.916527 6.615841 0.618604 1.063769 1.750456 
0.000000 31.457692 -1.621306 11.192838 2.002404 4.666915 14.800600 -2.768740 1.285670 9.889380 -1.461390 1.759090 0.000000 0.000000 0.000000 6.441530 -1.989937 3.186130 -20.804007 1.133441 -5.355707 0.000000 0.000000 0.000000 -79.780388 -39.885487 -2.656797 -126.547165 -8.422715 -40.509121 -28.348972 2.814519 -4.573800 0.000000 0.000000 0.000000 48.915569 49.843525 -54.236618 110.810654 40.922066 -45.169441 0.123779 -0.124811 -0.000135 -44.873119 24.183809 2.196301 79.231796 -6.647906 -6.401639 -38.799789 10.973697 -15.998479 -81.272484 -31.244438 1.608492 68.945473 5.091968 6.304191 0.811962 1.559107 1.393370 
0.000000 31.524732 -1.621306 11.505929 2.822056 4.664468 14.800600 -2.768740 1.285670 9.889380 -1.461390 1.759090 0.000000 0.000000 0.000000 6.943008 -3.469913 3.154924 -24.205286 0.262935 -6.430347 0.000000 0.000000 0.000000 -79.200432 -39.317596 -3.765923 -127.258911 -8.416101 -40.668495 -29.492491 1.586745 -4.807599 0.000000 0.000000 0.000000 50.528908 46.944801 -53.329079 115.238091 39.851311 -48.461361 0.138517 -0.108226 0.351430 -44.521214 23.132172 2.626888 78.536652 -7.169965 -6.009469 -38.466278 10.827294 -15.563126 -81.672523 -31.617683 2.346482 68.410088 5.268510 6.357234 0.908281 1.505093 1.390411 
0.000000 31.565957 -1.621306 11.788975 3.512366 4.663710 14.800600 -2.768740 1.285670 9.889380 -1.461390 1.759090 0.000000 0.000000 0.000000 7.416414 -4.867043 3.125465 -27.335129 -0.502195 -7.407925 0.000000 0.000000 0.000000 -78.621826 -38.751099 -4.514007 -127.947350 -8.099965 -40.543316 -30.234423 0.080450 -4.766873 0.000000 0.000000 0.000000 51.694557 44.601856 -52.113632 119.045044 38.638485 -51.002857 0.108341 -0.138429 0.351429 -44.348389 22.427492 3.597947 77.834656 -7.172097 -5.724484 -38.419994 10.251109 -15.228506 -82.060837 -31.985445 2.921108 68.050789 5.441458 6.427274 1.059069 1.617896 1.386415 
0.000000 31.579651 -1.621306 12.043266 4.071504 4.664779 14.800600 -2.768740 1.285670 9.889380 -1.461390 1.759090 0.000000 0.000000 0.000000 7.855642 -6.163306 3.098133 -30.219816 -1.152543 -8.291822 0.000000 0.000000 0.000000 -78.270020 -38.218937 -5.859564 -128.492065 -8.236452 -40.772491 -31.095924 -1.120077 -5.135875 0.000000 0.000000 0.000000 53.125759 42.027206 -51.390491 122.920288 37.744633 -53.658169 0.131714 -0.116408 0.175647 -44.226620 21.758205 3.872626 77.488373 -7.339134 -5.459110 -38.095131 10.068296 -15.154132 -82.232101 -32.335121 3.269866 67.861336 5.619339 6.693487 1.002733 1.653366 1.038709 
0.000000 31.563814 -1.621306 12.269797 4.496283 4.667834 14.800600 -2.768740 1.285670 9.889380 -1.461390 1.759090 0.000000 0.000000 0.000000 8.254427 -7.340212 3.073318 -32.883095 -1.677519 -9.084450 0.000000 0.000000 0.000000 -77.836914 -37.942745 -6.442245 -129.010284 -8.094568 -40.606544 -31.925707 -2.188699 -4.999715 0.000000 0.000000 0.000000 54.330631 39.985085 -50.599880 126.544334 36.896088 -56.070141 0.151993 -0.088302 -0.000117 -44.226379 21.230877 4.229076 77.311287 -7.337814 -5.429522 -38.084743 10.110628 -14.788447 -82.482887 -32.294971 3.739775 67.860428 5.797071 6.635327 0.943348 1.483341 1.039546 
0.000000 31.516139 -1.621306 12.469273 4.782125 4.673054 14.800600 -2.768740 1.285670 9.889380 -1.461390 1.759090 0.000000 0.000000 0.000000 8.606318 -8.378724 3.051420 -35.346413 -2.065231 -9.787275 0.000000 0.000000 0.000000 -77.487045 -37.415123 -7.599459 -129.558640 -8.050980 -41.392471 -32.773933 -2.689173 -5.009306 0.000000 0.000000 0.000000 55.555984 37.837021 -49.675228 129.658401 36.033020 -58.180569 0.148459 -0.094122 -0.000122 -44.362278 20.854456 4.498373 77.312424 -7.512189 -5.390639 -38.084618 10.110892 -14.612556 -83.081520 -32.498180 4.066989 67.860428 5.797071 6.635327 1.149494 1.768777 0.858655 
0.000000 31.433993 -1.621306 12.642118 4.923016 4.680641 14.800600 -2.768740 1.285670 9.889380 -1.461390 1.759090 0.000000 0.000000 0.000000 8.904651 -9.259169 3.032856 -37.629158 -2.302371 -10.400835 0.000000 0.000000 0.000000 -77.095741 -37.205204 -8.285179 -130.084381 -8.051033 -41.155155 -33.387997 -3.758632 -5.209531 0.000000 0.000000 0.000000 56.602043 36.122227 -49.011986 132.612808 35.345261 -60.196636 0.173705 -0.026939 0.175740 -44.765778 20.885447 4.282752 77.674171 -7.689419 -5.240117 -38.331745 9.802732 -14.510942 -83.446465 -32.677391 3.998266 68.036636 5.808779 6.664931 1.293247 2.093920 0.499569 
0.000000 31.314381 -1.621306 12.788483 4.911437 4.690819 14.800600 -2.768740 1.285670 9.889380 -1.461390 1.759090 0.000000 0.000000 0.000000 9.142509 -9.961146 3.018054 -39.748840 -2.374067 -10.924743 0.000000 0.000000 0.000000 -76.932426 -36.863316 -8.843833 -130.648911 -8.142596 -41.304028 -33.852467 -4.389678 -5.347254 0.000000 0.000000 0.000000 57.301949 34.549900 -48.693722 135.390778 34.730015 -62.821594 0.110524 -0.136688 0.175649 -45.202084 20.838478 4.029021 78.378296 -7.862930 -5.494343 -38.839996 9.989596 -14.243594 -83.903419 -32.655834 4.543367 68.212868 5.971937 6.620122 1.326758 1.860759 1.030491 
0.000000 31.153925 -1.621306 12.908243 4.738294 4.703841 14.800600 -2.768740 1.285670 9.889380 -1.461390 1.759090 0.000000 0.000000 0.000000 9.312707 -10.463436 3.007464 -41.721287 -2.263739 -11.357683 0.000000 0.000000 0.000000 -76.746223 -36.679207 -9.080703 -130.997421 -8.001806 -41.454319 -34.642937 -5.184291 -5.061716 0.000000 0.000000 0.000000 58.181007 33.379658 -47.836292 137.521500 33.927620 -63.849121 0.000112 0.000469 0.176320 -45.838017 21.249783 3.842117 79.255043 -7.517254 -5.889884 -39.384380 9.999529 -14.512810 -84.473228 -32.668095 4.220366 68.737022 5.970020 6.859115 1.242336 1.704876 0.855507 
0.000000 30.948820 -1.621306 13.001000 4.392820 4.719990 14.800600 -2.768740 1.285670 9.889380 -1.461390 1.759090 0.000000 0.000000 0.000000 9.407740 -10.743900 3.001550 -43.560799 -1.952920 -11.697400 0.000000 0.000000 0.000000 -76.565262 -36.497353 -9.668508 -131.529465 -7.965158 -41.489101 -34.774971 -5.527151 -5.486271 0.000000 0.000000 0.000000 58.875862 32.262745 -47.312771 139.964935 33.229576 -65.462105 0.000122 0.000469 0.176320 -46.662907 21.747555 3.347099 80.303040 -7.349125 -6.451269 -39.749043 9.993546 -14.308496 -85.104240 -32.643715 4.491258 69.443787 5.972501 6.951400 1.244824 1.703081 1.031322 
0.000000 30.700719 -1.621306 13.065473 3.876696 4.739130 14.800600 -2.768740 1.285670 9.889380 -1.461390 1.759090 0.000000 0.000000 0.000000 9.422795 -10.788333 3.000613 -45.268009 -1.433357 -11.941512 0.000000 0.000000 0.000000 -76.380844 -36.313152 -9.902946 -132.071732 -7.955575 -41.976719 -34.774643 -5.529333 -5.309831 0.000000 0.000000 0.000000 59.582737 31.421204 -46.870564 141.879486 32.820431 -66.778046 0.055842 -0.166676 -0.000081 -47.827644 22.414976 2.720702 81.884232 -7.004074 -6.952164 -40.047504 10.319156 -14.701899 -85.879417 -32.668724 4.238758 70.326889 6.149429 7.012617 1.237317 1.921354 0.325135 
0.000000 30.434503 -1.621306 13.097675 3.246787 4.759364 14.800600 -2.768740 1.285670 9.889380 -1.461390 1.759090 0.000000 0.000000 0.000000 9.364834 -10.617276 3.004220 -46.792988 -0.743801 -12.090003 0.000000 0.000000 0.000000 -76.380844 -36.313148 -9.902952 -132.255157 -8.124923 -41.879581 -34.750820 -5.698911 -5.255044 0.000000 0.000000 0.000000 59.930763 31.055655 -46.600857 143.379486 32.497189 -67.918388 0.127973 -0.120508 0.175645 -48.979832 23.172276 1.942008 83.814064 -6.838561 -7.649642 -41.352432 10.162263 -14.444392 -86.654488 -32.694221 3.989495 71.387222 5.978914 7.209044 1.135582 1.565109 -0.018103 
0.000000 30.180779 -1.621306 13.092687 2.573010 4.778353 14.800600 -2.768740 1.285670 9.889380 -1.461390 1.759090 0.000000 0.000000 0.000000 9.243516 -10.259237 3.011769 -48.071617 0.066467 -12.142709 0.000000 0.000000 0.000000 -76.378815 -36.311829 -9.726767 -132.615540 -8.118939 -42.149300 -34.774330 -5.531409 -5.133438 0.000000 0.000000 0.000000 60.270428 30.814030 -46.224426 144.687408 31.938108 -68.756050 0.050575 -0.168350 0.175706 -50.101402 23.993229 1.200395 85.388817 -6.666111 -8.286387 -42.045879 10.337627 -14.127646 -87.081779 -32.306519 3.722497 72.265060 6.148543 7.444788 1.138444 1.098604 0.163096 
0.000000 29.970287 -1.621306 13.045200 1.924830 4.793750 14.800600 -2.768740 1.285670 9.889380 -1.461390 1.759090 0.000000 0.000000 0.000000 9.068208 -9.741863 3.022678 -49.037235 0.949416 -12.098474 0.000000 0.000000 0.000000 -76.559212 -36.493355 -9.139987 -132.935852 -7.649458 -41.853382 -34.655880 -5.084818 -5.093188 0.000000 0.000000 0.000000 60.616161 31.132061 -46.052479 145.597183 31.817890 -69.349022 0.000145 0.000472 0.176319 -51.012878 24.893927 0.331313 86.608955 -6.495482 -8.861356 -42.557690 10.514727 -14.175857 -87.483002 -32.149151 3.525676 73.154121 5.973214 7.440421 0.833682 1.132527 0.518198 
0.000000 29.827366 -1.621306 12.951900 1.359067 4.803700 14.800600 -2.768740 1.285670 9.889380 -1.461390 1.759090 0.000000 0.000000 0.000000 8.848030 -9.092069 3.036379 -49.619946 1.857769 -11.955136 0.000000 0.000000 0.000000 -76.742203 -36.676510 -8.728380 -133.291214 -7.646937 -41.942749 -33.974957 -4.843205 -5.203338 0.000000 0.000000 0.000000 60.810825 31.591784 -45.766628 146.421585 31.593580 -69.828621 0.124860 -0.123732 0.175645 -51.773041 25.623440 -0.267125 87.646072 -6.148735 -9.412830 -43.101696 10.521562 -14.121561 -87.679970 -31.983721 3.269448 73.684029 5.975094 7.513371 0.900947 1.079787 0.340172 
0.000000 29.749656 -1.621306 12.818709 0.881746 4.808431 14.800600 -2.768740 1.285670 9.889380 -1.461390 1.759090 0.000000 0.000000 0.000000 8.591896 -8.336158 3.052318 -49.745880 2.744511 -11.709512 0.000000 0.000000 0.000000 -76.904716 -37.017944 -8.171184 -133.647110 -7.644124 -42.027401 -33.361046 -4.022695 -5.128305 0.000000 0.000000 0.000000 60.808819 32.276051 -45.681171 146.784058 31.411390 -70.343727 0.046178 -0.169609 0.175712 -52.205566 26.193104 -0.906275 88.163757 -6.154989 -9.851139 -43.141666 10.352806 -14.351020 -87.651115 -31.972687 2.936285 74.037292 5.976343 7.562280 0.831460 0.907075 -0.007333 
0.000000 29.728623 -1.621306 12.653572 0.486895 4.808648 14.800600 -2.768740 1.285670 9.889380 -1.461390 1.759090 0.000000 0.000000 0.000000 8.308554 -7.499949 3.069949 -49.336441 3.562403 -11.357355 0.000000 0.000000 0.000000 -77.295227 -37.227226 -7.487076 -133.998535 -7.643825 -41.937527 -33.065334 -3.432102 -5.309130 0.000000 0.000000 0.000000 60.643356 33.221104 -45.555199 146.783661 31.410961 -70.342308 0.045910 -0.169681 0.175712 -52.235893 26.647963 -1.186239 88.522766 -6.326674 -9.899656 -43.365005 10.126856 -14.078724 -87.440819 -31.782034 2.546921 74.395470 5.798964 7.481527 0.740135 0.983008 0.342830 
0.000000 29.756322 -1.621306 12.464100 0.169400 4.805008 14.800600 -2.768740 1.285670 9.889380 -1.461390 1.759090 0.000000 0.000000 0.000000 8.006626 -6.608891 3.088738 -48.307499 4.263493 -10.893320 0.000000 0.000000 0.000000 -77.670967 -37.598526 -7.006649 -134.180557 -7.640142 -42.162746 -32.079201 -2.536932 -5.070993 0.000000 0.000000 0.000000 60.627026 34.146084 -45.603699 146.783203 31.410482 -70.340706 0.045622 -0.169759 0.175713 -52.089710 27.012152 -1.302434 88.517372 -5.796377 -9.577064 -43.563580 10.022861 -14.813492 -87.043541 -31.589512 2.268055 74.395470 5.798965 7.481528 0.733062 0.988301 0.342722 
